<?xml version="1.0" encoding="utf-8"?>
<!-- Generator: Adobe Illustrator 16.0.0, SVG Export Plug-In . SVG Version: 6.00 Build 0)  -->
<!DOCTYPE svg PUBLIC "-//W3C//DTD SVG 1.1//EN" "http://www.w3.org/Graphics/SVG/1.1/DTD/svg11.dtd">
<svg version="1.1" id="Layer_1" xmlns="http://www.w3.org/2000/svg" xmlns:xlink="http://www.w3.org/1999/xlink" x="0px" y="0px"
	 width="585.07px" height="182.938px" viewBox="0 0 585.07 182.938" enable-background="new 0 0 585.07 182.938"
	 xml:space="preserve">
<g>
	<g>
		<defs>
			<rect id="SVGID_1_" x="-128" y="-206.28" width="841.89" height="595.28"/>
		</defs>
		<clipPath id="SVGID_2_">
			<use xlink:href="#SVGID_1_"  overflow="visible"/>
		</clipPath>
		<path clip-path="url(#SVGID_2_)" fill="#1268B3" d="M183.795,102.6c0.647,0.663,1.525,0.994,2.633,0.994h3.886
			c1.129,0,2.011-0.331,2.649-0.994c0.637-0.662,0.956-1.56,0.956-2.693v-1.09c0-1.152-0.324-2.056-0.972-2.708
			c-0.648-0.65-1.525-0.978-2.633-0.978h-3.886c-1.129,0-2.012,0.331-2.649,0.994c-0.638,0.662-0.956,1.56-0.956,2.69v1.09
			C182.824,101.04,183.147,101.938,183.795,102.6 M183.481,140.176c0.355,0.353,0.815,0.529,1.379,0.529h7.022
			c0.543,0,0.997-0.178,1.363-0.529c0.365-0.354,0.549-0.813,0.549-1.373v-29.596c0-0.54-0.178-0.992-0.533-1.356
			c-0.356-0.364-0.815-0.546-1.379-0.546h-7.022c-0.543,0-0.998,0.177-1.363,0.531c-0.366,0.353-0.549,0.81-0.549,1.371v29.596
			C182.949,139.364,183.126,139.821,183.481,140.176 M202.163,140.173c0.356,0.354,0.815,0.532,1.38,0.532h7.021
			c0.543,0,0.997-0.179,1.363-0.532c0.366-0.355,0.549-0.815,0.549-1.38v-21c2.988-2.988,5.788-4.482,8.4-4.482
			c3.991-0.021,5.987,2.478,5.987,7.491v17.991c0,0.544,0.177,0.999,0.533,1.362c0.355,0.366,0.815,0.55,1.379,0.55h6.989
			c0.565,0,1.029-0.179,1.395-0.532c0.366-0.355,0.549-0.815,0.549-1.38v-17.991c0-5.098-1.275-8.886-3.824-11.362
			c-2.55-2.477-6.029-3.715-10.438-3.715c-3.719,0-7.376,1.517-10.97,4.545v-1.974c0-0.565-0.178-1.029-0.533-1.396
			c-0.356-0.364-0.815-0.549-1.379-0.549h-7.021c-0.544,0-0.999,0.185-1.364,0.549c-0.366,0.366-0.548,0.83-0.548,1.396v30.497
			C201.631,139.357,201.808,139.817,202.163,140.173 M262.915,139.844c0.585,0.574,1.285,0.861,2.1,0.861h5.893
			c0.815,0,1.509-0.287,2.084-0.861c0.575-0.575,0.862-1.271,0.862-2.085v-7.052h15.014c12.642,0,18.958-5.825,18.948-17.477
			c-0.012-11.647-6.327-17.474-18.948-17.474h-23.916c-0.815,0-1.504,0.293-2.068,0.877c-0.565,0.586-0.847,1.286-0.847,2.101
			v39.023C262.037,138.573,262.33,139.269,262.915,139.844 M273.854,104.628h11.441c3.51,0,6.175,0.591,7.993,1.771
			c1.817,1.183,2.728,3.459,2.728,6.833c0,3.375-0.91,5.653-2.728,6.833c-1.817,1.183-4.482,1.771-7.993,1.771h-11.441V104.628z
			 M313.912,102.6c0.646,0.663,1.523,0.994,2.633,0.994h3.887c1.128,0,2.012-0.331,2.648-0.994c0.637-0.662,0.955-1.56,0.955-2.693
			v-1.09c0-1.152-0.323-2.056-0.972-2.708c-0.646-0.65-1.524-0.978-2.633-0.978h-3.887c-1.128,0-2.013,0.331-2.649,0.994
			c-0.637,0.662-0.955,1.56-0.955,2.69v1.09C312.939,101.04,313.264,101.938,313.912,102.6 M313.599,140.176
			c0.354,0.353,0.815,0.529,1.379,0.529h7.021c0.543,0,0.997-0.178,1.362-0.529c0.365-0.354,0.549-0.813,0.549-1.373v-29.596
			c0-0.54-0.178-0.992-0.532-1.356c-0.355-0.364-0.814-0.546-1.379-0.546h-7.021c-0.544,0-0.997,0.177-1.363,0.531
			c-0.365,0.353-0.548,0.81-0.548,1.371v29.596C313.065,139.364,313.242,139.821,313.599,140.176 M348.108,141.332
			c11.429,0.021,17.146-2.927,17.146-8.838c0-0.603-0.184-1.098-0.549-1.485c-0.365-0.39-0.83-0.584-1.396-0.584h-4.671
			c-1.504,0.021-2.706,0.585-3.604,1.692c-1.149,1.398-3.196,2.1-6.145,2.1c-2.611,0-4.55-0.545-5.813-1.636
			c-1.264-1.092-2.001-2.833-2.21-5.229h23.603c0.563,0,1.029-0.187,1.396-0.561c0.364-0.375,0.55-0.853,0.55-1.431v-1.829
			c0-5.731-1.61-10.134-4.827-13.202c-3.22-3.07-7.711-4.605-13.479-4.605c-5.727,0-10.208,1.542-13.446,4.624
			c-3.239,3.082-4.858,7.514-4.858,13.296s1.608,10.176,4.827,13.183C337.848,139.83,342.341,141.332,348.108,141.332
			 M348.124,112.84c4.628,0,7.047,2.466,7.256,7.396h-14.575C341.056,115.306,343.496,112.84,348.124,112.84 M372.714,140.173
			c0.354,0.354,0.814,0.532,1.379,0.532h7.021c0.543,0,0.998-0.179,1.363-0.532c0.365-0.355,0.549-0.815,0.549-1.38v-21
			c2.131-2.988,4.356-4.482,6.676-4.482c3.637-0.021,5.454,2.478,5.454,7.491v17.991c0,0.544,0.184,0.999,0.55,1.362
			c0.364,0.366,0.829,0.55,1.395,0.55h6.989c0.544,0,0.998-0.179,1.363-0.532c0.365-0.355,0.549-0.815,0.549-1.38v-17.991
			c0-0.898-0.062-1.797-0.188-2.696c2.36-3.196,4.649-4.795,6.864-4.795c3.637-0.021,5.454,2.478,5.454,7.491v17.991
			c0,0.544,0.183,0.999,0.548,1.362c0.366,0.366,0.831,0.55,1.396,0.55h6.99c0.563,0,1.022-0.179,1.379-0.532
			c0.354-0.355,0.532-0.815,0.532-1.38v-17.991c0-5.141-1.186-8.938-3.558-11.394c-2.372-2.456-5.616-3.685-9.731-3.685
			c-4.055-0.02-8.024,1.986-11.911,6.02c-2.509-4.014-6.195-6.02-11.064-6.02c-2.049,0-3.799,0.394-5.25,1.176
			c-1.452,0.783-2.931,1.907-4.436,3.369v-1.974c0-0.565-0.179-1.029-0.533-1.396c-0.354-0.364-0.814-0.549-1.379-0.549h-7.021
			c-0.544,0-0.998,0.185-1.362,0.549c-0.366,0.366-0.55,0.83-0.55,1.396v30.497C372.181,139.357,372.357,139.817,372.714,140.173
			 M453.678,141.332c6.121,0,10.813-1.504,14.072-4.515c3.259-3.009,4.889-7.442,4.889-13.306c0-5.861-1.63-10.291-4.889-13.29
			c-3.261-2.998-7.951-4.498-14.072-4.498c-6.122,0-10.809,1.5-14.059,4.498c-3.251,2.999-4.876,7.429-4.876,13.29
			c0,5.862,1.625,10.297,4.876,13.306C442.869,139.828,447.556,141.332,453.678,141.332 M453.676,112.84
			c2.795,0,4.848,0.847,6.154,2.539c1.31,1.691,1.964,4.397,1.964,8.118c0,3.72-0.654,6.437-1.964,8.148
			c-1.308,1.714-3.359,2.57-6.154,2.57s-4.842-0.856-6.141-2.57c-1.298-1.713-1.946-4.43-1.946-8.148
			c0-3.72,0.648-6.427,1.946-8.118C448.834,113.687,450.881,112.84,453.676,112.84 M478.939,140.173
			c0.354,0.354,0.813,0.532,1.379,0.532h7.021c0.543,0,0.997-0.179,1.362-0.532c0.366-0.355,0.55-0.815,0.55-1.38v-21
			c2.987-2.988,5.788-4.482,8.399-4.482c3.99-0.021,5.986,2.478,5.986,7.491v17.991c0,0.544,0.177,0.999,0.533,1.362
			c0.354,0.366,0.814,0.55,1.379,0.55h6.99c0.563,0,1.028-0.179,1.394-0.532c0.366-0.355,0.549-0.815,0.549-1.38v-17.991
			c0-5.098-1.273-8.886-3.823-11.362c-2.55-2.476-6.028-3.715-10.438-3.715c-3.719,0-7.376,1.517-10.97,4.545v-1.974
			c0-0.565-0.179-1.029-0.533-1.396c-0.355-0.364-0.814-0.549-1.379-0.549h-7.021c-0.545,0-0.998,0.185-1.363,0.549
			c-0.366,0.366-0.549,0.83-0.549,1.396v30.497C478.406,139.357,478.584,139.817,478.939,140.173 M535.641,141.332
			c3.428,0,6.206-0.203,8.339-0.609c0.563-0.081,1.028-0.294,1.396-0.64c0.364-0.347,0.548-0.751,0.548-1.22v-3.26
			c0-0.548-0.184-0.995-0.548-1.34c-0.366-0.345-0.831-0.518-1.396-0.518h-1.16c-0.418,0-1.098,0.062-2.037,0.188
			c-0.94,0.126-1.692,0.188-2.257,0.188c-1.673,0-3.01-0.587-4.013-1.762c-1.003-1.174-1.505-2.84-1.505-4.997v-11.642h8.745
			c0.544,0,0.998-0.178,1.363-0.535c0.365-0.354,0.549-0.816,0.549-1.385v-3.745c0-0.565-0.178-1.028-0.532-1.385
			c-0.355-0.356-0.814-0.535-1.38-0.535h-8.745V97.695c0-0.562-0.178-1.024-0.532-1.391c-0.355-0.365-0.814-0.547-1.38-0.547h-7.021
			c-0.543,0-0.998,0.183-1.362,0.548c-0.366,0.366-0.55,0.831-0.55,1.396v29.524C522.162,136.651,526.655,141.353,535.641,141.332
			 M566.766,141.332c11.431,0.021,17.146-2.927,17.146-8.838c0-0.603-0.184-1.098-0.548-1.485c-0.366-0.39-0.831-0.584-1.396-0.584
			h-4.67c-1.505,0.021-2.707,0.585-3.604,1.692c-1.148,1.398-3.196,2.1-6.144,2.1c-2.612,0-4.551-0.545-5.814-1.636
			c-1.265-1.092-2.001-2.833-2.209-5.229h23.603c0.563,0,1.028-0.187,1.396-0.561c0.364-0.375,0.548-0.853,0.548-1.431v-1.829
			c0-5.731-1.608-10.134-4.827-13.202c-3.218-3.07-7.711-4.605-13.479-4.605c-5.726,0-10.208,1.542-13.446,4.624
			s-4.857,7.514-4.857,13.296s1.608,10.176,4.826,13.183C556.506,139.83,560.999,141.332,566.766,141.332 M566.781,112.84
			c4.628,0,7.047,2.466,7.256,7.396h-14.574C559.714,115.306,562.152,112.84,566.781,112.84"/>
	</g>
	<g>
		<defs>
			<rect id="SVGID_3_" x="-128" y="-206.28" width="841.89" height="595.28"/>
		</defs>
		<clipPath id="SVGID_4_">
			<use xlink:href="#SVGID_3_"  overflow="visible"/>
		</clipPath>
		<path clip-path="url(#SVGID_4_)" fill="#1268B3" d="M184.598,83.073c0.625,0.603,1.374,0.902,2.245,0.902h6.033
			c0.871,0,1.614-0.3,2.228-0.902c0.614-0.601,0.922-1.35,0.922-2.246V48.78l11.535,32.244c0.328,0.811,0.869,1.504,1.623,2.083
			c0.753,0.58,1.556,0.869,2.408,0.869h4.687c0.852,0,1.66-0.289,2.425-0.869c0.765-0.579,1.3-1.272,1.606-2.083l11.569-32.244
			v32.048c0,0.896,0.308,1.646,0.924,2.246c0.616,0.603,1.36,0.902,2.234,0.902h6.049c0.874,0,1.619-0.3,2.235-0.902
			c0.616-0.601,0.924-1.35,0.924-2.246V40.12c0-0.896-0.293-1.651-0.878-2.264c-0.585-0.611-1.308-0.919-2.168-0.919h-13.475
			c-0.861,0-1.677,0.308-2.449,0.919c-0.773,0.612-1.292,1.346-1.557,2.197l-9.766,28.014l-9.756-28.014
			c-0.264-0.852-0.783-1.585-1.554-2.197c-0.772-0.611-1.588-0.919-2.447-0.919h-13.46c-0.86,0-1.588,0.308-2.183,0.919
			c-0.595,0.612-0.893,1.367-0.893,2.264v40.707C183.659,81.724,183.972,82.473,184.598,83.073 M256.447,80.745
			c2.668,2.592,6.309,3.888,10.923,3.888c3.893,0,7.72-1.592,11.481-4.775v2.108c0,0.572,0.186,1.049,0.558,1.434
			c0.371,0.385,0.853,0.576,1.443,0.576h7.315c0.59,0,1.077-0.185,1.46-0.557c0.382-0.372,0.574-0.854,0.574-1.443V50.059
			c0-0.59-0.192-1.077-0.574-1.46c-0.383-0.382-0.87-0.574-1.46-0.574h-7.315c-0.569,0-1.044,0.192-1.427,0.574
			c-0.383,0.382-0.574,0.868-0.574,1.458v21.92c-3.149,3.146-6.09,4.717-8.824,4.717c-4.155,0-6.232-2.621-6.232-7.862V50.057
			c0-0.59-0.186-1.076-0.558-1.458s-0.852-0.574-1.443-0.574h-7.348c-0.569,0-1.044,0.192-1.427,0.574
			c-0.382,0.383-0.574,0.87-0.574,1.46v18.796C252.444,74.191,253.778,78.154,256.447,80.745 M316.018,84.633
			c6.406,0,11.315-1.575,14.727-4.724c3.412-3.149,5.117-7.79,5.117-13.925c0-6.134-1.705-10.77-5.117-13.908
			c-3.41-3.138-8.319-4.707-14.727-4.707c-6.406,0-11.311,1.569-14.712,4.707c-3.401,3.139-5.103,7.774-5.103,13.908
			c0,6.135,1.699,10.775,5.103,13.925C304.707,83.058,309.61,84.633,316.018,84.633 M316.015,54.815
			c2.927,0,5.073,0.887,6.443,2.657c1.368,1.772,2.054,4.604,2.054,8.496c0,3.893-0.686,6.736-2.054,8.529
			c-1.37,1.793-3.518,2.689-6.443,2.689c-2.925,0-5.065-0.896-6.425-2.689c-1.358-1.793-2.037-4.637-2.037-8.529
			c0-3.892,0.68-6.724,2.037-8.496C310.948,55.701,313.09,54.815,316.015,54.815 M337.205,49.633c0,0.372,0.109,0.798,0.328,1.279
			l14.171,30.178c0.394,0.853,1.006,1.547,1.838,2.083c0.829,0.536,1.693,0.803,2.591,0.803h4.821c0.896,0,1.767-0.267,2.607-0.803
			c0.842-0.536,1.46-1.23,1.854-2.083l14.171-30.178c0.195-0.459,0.295-0.887,0.295-1.279c0.021-0.284-0.021-0.536-0.131-0.755
			c-0.241-0.568-0.744-0.854-1.51-0.854h-6.331c-0.94,0-1.825,0.269-2.656,0.805c-0.831,0.535-1.422,1.229-1.771,2.083
			l-8.924,20.436l-8.954-20.436c-0.351-0.854-0.939-1.548-1.771-2.083c-0.831-0.536-1.718-0.805-2.657-0.805h-6.298
			c-0.767,0-1.269,0.285-1.51,0.854C337.261,49.097,337.205,49.349,337.205,49.633 M400.383,84.633
			c11.962,0.021,17.942-3.063,17.942-9.25c0-0.629-0.191-1.147-0.573-1.554c-0.384-0.408-0.869-0.612-1.46-0.612h-4.888
			c-1.575,0.022-2.833,0.613-3.772,1.771c-1.203,1.466-3.346,2.198-6.43,2.198c-2.733,0-4.762-0.57-6.085-1.712
			c-1.322-1.141-2.094-2.965-2.313-5.472h24.7c0.59,0,1.076-0.196,1.46-0.588c0.382-0.392,0.573-0.89,0.573-1.494v-1.914
			c0-6-1.686-10.606-5.052-13.819c-3.368-3.212-8.068-4.818-14.104-4.818c-5.992,0-10.684,1.612-14.072,4.839
			c-3.39,3.226-5.084,7.863-5.084,13.915c0,6.051,1.684,10.648,5.052,13.793S394.347,84.633,400.383,84.633 M400.398,54.815
			c4.844,0,7.375,2.581,7.594,7.742h-15.253C393.003,57.396,395.556,54.815,400.398,54.815 M426.133,83.419
			c0.371,0.372,0.854,0.557,1.442,0.557h7.349c0.567,0,1.044-0.186,1.427-0.56c0.383-0.373,0.574-0.857,0.574-1.45V60.906
			c2.688-3.251,5.51-4.877,8.463-4.877c0.59,0,1.454,0.033,2.592,0.1c1.137,0.064,1.956,0.098,2.46,0.098h1.05
			c0.59,0,1.077-0.183,1.46-0.55c0.382-0.366,0.574-0.84,0.574-1.422v-4.913c0-0.561-0.192-1.029-0.574-1.406
			c-0.383-0.377-0.87-0.565-1.46-0.565c-3.347,0-6.053,0.383-8.119,1.148c-2.065,0.767-4.215,1.947-6.444,3.543v-2.034
			c0-0.581-0.187-1.06-0.559-1.436c-0.372-0.377-0.854-0.566-1.442-0.566h-7.349c-0.568,0-1.044,0.192-1.427,0.574
			c-0.384,0.383-0.574,0.87-0.574,1.46v31.917C425.574,82.566,425.761,83.047,426.133,83.419 M458.731,64.262
			c1.701,1.685,3.757,2.903,6.168,3.658c2.409,0.754,4.843,1.389,7.298,1.901c2.455,0.515,4.532,1.1,6.231,1.756
			c1.698,0.655,2.548,1.476,2.548,2.461c0,2.099-2.51,3.148-7.529,3.148c-3.156,0.021-5.337-0.711-6.54-2.198
			c-0.938-1.181-2.191-1.771-3.763-1.771h-4.872c-0.59,0-1.074,0.192-1.455,0.574c-0.383,0.383-0.573,0.87-0.573,1.46
			c0,6.255,6.004,9.382,18.009,9.382c12.05,0.021,18.073-3.51,18.073-10.595c0-2.56-0.847-4.676-2.542-6.349
			s-3.757-2.891-6.186-3.656c-2.428-0.766-4.863-1.395-7.308-1.887s-4.517-1.065-6.216-1.722c-1.698-0.656-2.548-1.478-2.548-2.461
			c-0.021-2.1,2.146-3.149,6.504-3.149c3.152,0,5.332,0.744,6.536,2.231c0.941,1.159,2.2,1.738,3.777,1.738h4.896
			c0.591,0,1.071-0.186,1.443-0.558s0.56-0.853,0.56-1.442c0-6.276-5.991-9.415-17.977-9.415
			c-11.393-0.021-17.089,3.51-17.089,10.595C456.18,60.479,457.029,62.579,458.731,64.262 M499.38,44.099
			c0.678,0.693,1.596,1.04,2.755,1.04h4.067c1.182,0,2.104-0.347,2.771-1.04c0.666-0.693,1-1.633,1-2.818V40.14
			c0-1.207-0.339-2.152-1.018-2.834c-0.678-0.682-1.596-1.024-2.755-1.024h-4.067c-1.182,0-2.104,0.348-2.771,1.04
			c-0.668,0.694-1.001,1.634-1.001,2.818v1.141C498.362,42.466,498.701,43.406,499.38,44.099 M499.052,83.422
			c0.371,0.37,0.854,0.554,1.442,0.554h7.349c0.567,0,1.044-0.184,1.427-0.554s0.574-0.85,0.574-1.437V51.013
			c0-0.565-0.187-1.038-0.559-1.419c-0.371-0.38-0.854-0.571-1.442-0.571h-7.349c-0.568,0-1.044,0.186-1.427,0.556
			c-0.384,0.369-0.574,0.848-0.574,1.435v30.973C498.493,82.573,498.68,83.052,499.052,83.422"/>
	</g>
	<g>
		<defs>
			<rect id="SVGID_5_" x="-128" y="-206.28" width="841.89" height="595.28"/>
		</defs>
		<clipPath id="SVGID_6_">
			<use xlink:href="#SVGID_5_"  overflow="visible"/>
		</clipPath>
		<path clip-path="url(#SVGID_6_)" fill="#BCBEC0" d="M150.542,141.488c4.734,0,8.572-3.838,8.572-8.57
			c0-4.734-3.838-8.572-8.572-8.572c-4.735,0-8.572,3.838-8.572,8.572C141.97,137.65,145.807,141.488,150.542,141.488"/>
	</g>
	<g>
		<defs>
			<rect id="SVGID_7_" x="-128" y="-206.28" width="841.89" height="595.28"/>
		</defs>
		<clipPath id="SVGID_8_">
			<use xlink:href="#SVGID_7_"  overflow="visible"/>
		</clipPath>
		<path clip-path="url(#SVGID_8_)" fill="#BCBEC0" d="M109.979,17.144c4.734,0,8.572-3.838,8.572-8.572
			c0-4.733-3.839-8.571-8.572-8.571s-8.572,3.838-8.572,8.571C101.407,13.306,105.245,17.144,109.979,17.144"/>
	</g>
	<g>
		<defs>
			<rect id="SVGID_9_" x="-128" y="-206.28" width="841.89" height="595.28"/>
		</defs>
		<clipPath id="SVGID_10_">
			<use xlink:href="#SVGID_9_"  overflow="visible"/>
		</clipPath>
		<path clip-path="url(#SVGID_10_)" fill="#BCBEC0" d="M109.979,37.868c4.734,0,8.572-3.839,8.572-8.572
			c0-4.734-3.838-8.572-8.572-8.572s-8.572,3.838-8.572,8.572C101.407,34.03,105.245,37.868,109.979,37.868"/>
	</g>
	<g>
		<defs>
			<rect id="SVGID_11_" x="-128" y="-206.28" width="841.89" height="595.28"/>
		</defs>
		<clipPath id="SVGID_12_">
			<use xlink:href="#SVGID_11_"  overflow="visible"/>
		</clipPath>
		<path clip-path="url(#SVGID_12_)" fill="#BCBEC0" d="M109.979,58.592c4.734,0,8.572-3.838,8.572-8.572
			c0-4.733-3.838-8.572-8.572-8.572s-8.572,3.839-8.572,8.572C101.407,54.754,105.245,58.592,109.979,58.592"/>
	</g>
	<g>
		<defs>
			<rect id="SVGID_13_" x="-128" y="-206.28" width="841.89" height="595.28"/>
		</defs>
		<clipPath id="SVGID_14_">
			<use xlink:href="#SVGID_13_"  overflow="visible"/>
		</clipPath>
		<path clip-path="url(#SVGID_14_)" fill="#BCBEC0" d="M109.979,79.316c4.734,0,8.572-3.838,8.572-8.571
			c0-4.734-3.838-8.572-8.572-8.572s-8.572,3.838-8.572,8.572S105.245,79.316,109.979,79.316"/>
	</g>
	<g>
		<defs>
			<rect id="SVGID_15_" x="-128" y="-206.28" width="841.89" height="595.28"/>
		</defs>
		<clipPath id="SVGID_16_">
			<use xlink:href="#SVGID_15_"  overflow="visible"/>
		</clipPath>
		<path clip-path="url(#SVGID_16_)" fill="#BCBEC0" d="M89.697,79.316c4.734,0,8.572-3.838,8.572-8.571
			c0-4.734-3.838-8.572-8.572-8.572c-4.734,0-8.572,3.838-8.572,8.572S84.963,79.316,89.697,79.316"/>
	</g>
	<g>
		<defs>
			<rect id="SVGID_17_" x="-128" y="-206.28" width="841.89" height="595.28"/>
		</defs>
		<clipPath id="SVGID_18_">
			<use xlink:href="#SVGID_17_"  overflow="visible"/>
		</clipPath>
		<path clip-path="url(#SVGID_18_)" fill="#BCBEC0" d="M109.979,100.041c4.734,0,8.572-3.839,8.572-8.572
			c0-4.734-3.838-8.572-8.572-8.572s-8.572,3.838-8.572,8.572C101.407,96.202,105.245,100.041,109.979,100.041"/>
	</g>
	<g>
		<defs>
			<rect id="SVGID_19_" x="-128" y="-206.28" width="841.89" height="595.28"/>
		</defs>
		<clipPath id="SVGID_20_">
			<use xlink:href="#SVGID_19_"  overflow="visible"/>
		</clipPath>
		<path clip-path="url(#SVGID_20_)" fill="#BCBEC0" d="M89.697,100.041c4.734,0,8.572-3.839,8.572-8.572
			c0-4.734-3.838-8.572-8.572-8.572c-4.734,0-8.572,3.838-8.572,8.572C81.125,96.202,84.963,100.041,89.697,100.041"/>
	</g>
	<g>
		<defs>
			<rect id="SVGID_21_" x="-128" y="-206.28" width="841.89" height="595.28"/>
		</defs>
		<clipPath id="SVGID_22_">
			<use xlink:href="#SVGID_21_"  overflow="visible"/>
		</clipPath>
		<path clip-path="url(#SVGID_22_)" fill="#BCBEC0" d="M109.979,141.488c4.734,0,8.572-3.838,8.572-8.57
			c0-4.734-3.838-8.572-8.572-8.572s-8.572,3.838-8.572,8.572C101.407,137.65,105.245,141.488,109.979,141.488"/>
	</g>
	<g>
		<defs>
			<rect id="SVGID_23_" x="-128" y="-206.28" width="841.89" height="595.28"/>
		</defs>
		<clipPath id="SVGID_24_">
			<use xlink:href="#SVGID_23_"  overflow="visible"/>
		</clipPath>
		<path clip-path="url(#SVGID_24_)" fill="#BCBEC0" d="M109.979,162.213c4.734,0,8.572-3.837,8.572-8.572
			c0-4.734-3.838-8.571-8.572-8.571s-8.572,3.837-8.572,8.571C101.407,158.376,105.245,162.213,109.979,162.213"/>
	</g>
	<g>
		<defs>
			<rect id="SVGID_25_" x="-128" y="-206.28" width="841.89" height="595.28"/>
		</defs>
		<clipPath id="SVGID_26_">
			<use xlink:href="#SVGID_25_"  overflow="visible"/>
		</clipPath>
		<path clip-path="url(#SVGID_26_)" fill="#BCBEC0" d="M89.697,37.868c4.734,0,8.572-3.839,8.572-8.572
			c0-4.734-3.838-8.572-8.572-8.572c-4.734,0-8.572,3.838-8.572,8.572C81.125,34.03,84.963,37.868,89.697,37.868"/>
	</g>
	<g>
		<defs>
			<rect id="SVGID_27_" x="-128" y="-206.28" width="841.89" height="595.28"/>
		</defs>
		<clipPath id="SVGID_28_">
			<use xlink:href="#SVGID_27_"  overflow="visible"/>
		</clipPath>
		<path clip-path="url(#SVGID_28_)" fill="#BCBEC0" d="M89.697,58.592c4.734,0,8.572-3.838,8.572-8.572
			c0-4.733-3.838-8.572-8.572-8.572c-4.734,0-8.572,3.839-8.572,8.572C81.125,54.754,84.963,58.592,89.697,58.592"/>
	</g>
	<g>
		<defs>
			<rect id="SVGID_29_" x="-128" y="-206.28" width="841.89" height="595.28"/>
		</defs>
		<clipPath id="SVGID_30_">
			<use xlink:href="#SVGID_29_"  overflow="visible"/>
		</clipPath>
		<path clip-path="url(#SVGID_30_)" fill="#BCBEC0" d="M8.572,120.765c4.734,0,8.572-3.838,8.572-8.572
			c0-4.732-3.838-8.57-8.572-8.57c-4.734,0-8.572,3.837-8.572,8.569C0,116.927,3.838,120.765,8.572,120.765"/>
	</g>
	<g>
		<defs>
			<rect id="SVGID_31_" x="-128" y="-206.28" width="841.89" height="595.28"/>
		</defs>
		<clipPath id="SVGID_32_">
			<use xlink:href="#SVGID_31_"  overflow="visible"/>
		</clipPath>
		<path clip-path="url(#SVGID_32_)" fill="#BCBEC0" d="M69.416,182.938c4.734,0,8.572-3.838,8.572-8.572
			c0-4.733-3.838-8.57-8.572-8.57s-8.572,3.837-8.572,8.57C60.844,179.1,64.682,182.938,69.416,182.938"/>
	</g>
	<g>
		<defs>
			<rect id="SVGID_33_" x="-128" y="-206.28" width="841.89" height="595.28"/>
		</defs>
		<clipPath id="SVGID_34_">
			<use xlink:href="#SVGID_33_"  overflow="visible"/>
		</clipPath>
		<path clip-path="url(#SVGID_34_)" fill="#BCBEC0" d="M49.135,100.041c4.734,0,8.572-3.839,8.572-8.572
			c0-4.734-3.838-8.572-8.572-8.572c-4.734,0-8.572,3.838-8.572,8.572C40.562,96.202,44.4,100.041,49.135,100.041"/>
	</g>
	<g>
		<defs>
			<rect id="SVGID_35_" x="-128" y="-206.28" width="841.89" height="595.28"/>
		</defs>
		<clipPath id="SVGID_36_">
			<use xlink:href="#SVGID_35_"  overflow="visible"/>
		</clipPath>
		<path clip-path="url(#SVGID_36_)" fill="#BCBEC0" d="M49.135,141.488c4.734,0,8.572-3.838,8.572-8.57
			c0-4.734-3.838-8.572-8.572-8.572c-4.734,0-8.572,3.838-8.572,8.572C40.562,137.65,44.4,141.488,49.135,141.488"/>
	</g>
	<g>
		<defs>
			<rect id="SVGID_37_" x="-128" y="-206.28" width="841.89" height="595.28"/>
		</defs>
		<clipPath id="SVGID_38_">
			<use xlink:href="#SVGID_37_"  overflow="visible"/>
		</clipPath>
		<path clip-path="url(#SVGID_38_)" fill="#BCBEC0" d="M69.416,141.488c4.734,0,8.572-3.838,8.572-8.57
			c0-4.734-3.838-8.572-8.572-8.572s-8.572,3.838-8.572,8.572C60.844,137.65,64.682,141.488,69.416,141.488"/>
	</g>
	<g>
		<defs>
			<rect id="SVGID_39_" x="-128" y="-206.28" width="841.89" height="595.28"/>
		</defs>
		<clipPath id="SVGID_40_">
			<use xlink:href="#SVGID_39_"  overflow="visible"/>
		</clipPath>
		<path clip-path="url(#SVGID_40_)" fill="#BCBEC0" d="M49.135,162.213c4.734,0,8.572-3.837,8.572-8.572
			c0-4.734-3.838-8.571-8.572-8.571c-4.734,0-8.572,3.837-8.572,8.571C40.562,158.376,44.4,162.213,49.135,162.213"/>
	</g>
	<g>
		<defs>
			<rect id="SVGID_41_" x="-128" y="-206.28" width="841.89" height="595.28"/>
		</defs>
		<clipPath id="SVGID_42_">
			<use xlink:href="#SVGID_41_"  overflow="visible"/>
		</clipPath>
		<path clip-path="url(#SVGID_42_)" fill="#BCBEC0" d="M69.416,162.213c4.734,0,8.572-3.837,8.572-8.572
			c0-4.734-3.838-8.571-8.572-8.571s-8.572,3.837-8.572,8.571C60.844,158.376,64.682,162.213,69.416,162.213"/>
	</g>
	<g>
		<defs>
			<rect id="SVGID_43_" x="-128" y="-206.28" width="841.89" height="595.28"/>
		</defs>
		<clipPath id="SVGID_44_">
			<use xlink:href="#SVGID_43_"  overflow="visible"/>
		</clipPath>
		<path clip-path="url(#SVGID_44_)" fill="#BCBEC0" d="M49.135,182.938c4.734,0,8.572-3.838,8.572-8.572
			c0-4.733-3.838-8.57-8.572-8.57c-4.734,0-8.572,3.837-8.572,8.57C40.563,179.1,44.4,182.938,49.135,182.938"/>
	</g>
	<g>
		<defs>
			<rect id="SVGID_45_" x="-128" y="-206.28" width="841.89" height="595.28"/>
		</defs>
		<clipPath id="SVGID_46_">
			<use xlink:href="#SVGID_45_"  overflow="visible"/>
		</clipPath>
		<path clip-path="url(#SVGID_46_)" fill="#BCBEC0" d="M28.853,100.041c4.734,0,8.572-3.839,8.572-8.572
			c0-4.734-3.838-8.572-8.572-8.572s-8.572,3.838-8.572,8.572C20.281,96.202,24.119,100.041,28.853,100.041"/>
	</g>
	<g>
		<defs>
			<rect id="SVGID_47_" x="-128" y="-206.28" width="841.89" height="595.28"/>
		</defs>
		<clipPath id="SVGID_48_">
			<use xlink:href="#SVGID_47_"  overflow="visible"/>
		</clipPath>
		<path clip-path="url(#SVGID_48_)" fill="#BCBEC0" d="M28.853,141.488c4.734,0,8.572-3.838,8.572-8.57
			c0-4.734-3.838-8.572-8.572-8.572s-8.572,3.838-8.572,8.572C20.281,137.65,24.119,141.488,28.853,141.488"/>
	</g>
	<g>
		<defs>
			<rect id="SVGID_49_" x="-128" y="-206.28" width="841.89" height="595.28"/>
		</defs>
		<clipPath id="SVGID_50_">
			<use xlink:href="#SVGID_49_"  overflow="visible"/>
		</clipPath>
		<path clip-path="url(#SVGID_50_)" fill="#BCBEC0" d="M28.853,162.213c4.734,0,8.572-3.837,8.572-8.572
			c0-4.734-3.838-8.571-8.572-8.571s-8.572,3.837-8.572,8.571C20.281,158.376,24.119,162.213,28.853,162.213"/>
	</g>
	<g>
		<defs>
			<rect id="SVGID_51_" x="-128" y="-206.28" width="841.89" height="595.28"/>
		</defs>
		<clipPath id="SVGID_52_">
			<use xlink:href="#SVGID_51_"  overflow="visible"/>
		</clipPath>
		<path clip-path="url(#SVGID_52_)" fill="#BCBEC0" d="M28.853,182.938c4.734,0,8.572-3.838,8.572-8.572
			c0-4.733-3.838-8.57-8.572-8.57s-8.572,3.837-8.572,8.57C20.281,179.1,24.119,182.938,28.853,182.938"/>
	</g>
	<g>
		<defs>
			<rect id="SVGID_53_" x="-128" y="-206.28" width="841.89" height="595.28"/>
		</defs>
		<clipPath id="SVGID_54_">
			<use xlink:href="#SVGID_53_"  overflow="visible"/>
		</clipPath>
		<path clip-path="url(#SVGID_54_)" fill="#BCBEC0" d="M130.26,79.316c4.734,0,8.572-3.838,8.572-8.571
			c0-4.734-3.838-8.572-8.572-8.572c-4.734,0-8.572,3.838-8.572,8.572S125.525,79.316,130.26,79.316"/>
	</g>
	<g>
		<defs>
			<rect id="SVGID_55_" x="-128" y="-206.28" width="841.89" height="595.28"/>
		</defs>
		<clipPath id="SVGID_56_">
			<use xlink:href="#SVGID_55_"  overflow="visible"/>
		</clipPath>
		<path clip-path="url(#SVGID_56_)" fill="#BCBEC0" d="M130.26,100.041c4.734,0,8.572-3.839,8.572-8.572
			c0-4.734-3.838-8.572-8.572-8.572c-4.734,0-8.572,3.838-8.572,8.572C121.688,96.202,125.525,100.041,130.26,100.041"/>
	</g>
	<g>
		<defs>
			<rect id="SVGID_57_" x="-128" y="-206.28" width="841.89" height="595.28"/>
		</defs>
		<clipPath id="SVGID_58_">
			<use xlink:href="#SVGID_57_"  overflow="visible"/>
		</clipPath>
		<path clip-path="url(#SVGID_58_)" fill="#BCBEC0" d="M130.26,141.488c4.734,0,8.572-3.838,8.572-8.57
			c0-4.734-3.838-8.572-8.572-8.572c-4.734,0-8.572,3.838-8.572,8.572C121.688,137.65,125.525,141.488,130.26,141.488"/>
	</g>
	<g>
		<defs>
			<rect id="SVGID_59_" x="-128" y="-206.28" width="841.89" height="595.28"/>
		</defs>
		<clipPath id="SVGID_60_">
			<use xlink:href="#SVGID_59_"  overflow="visible"/>
		</clipPath>
		<path clip-path="url(#SVGID_60_)" fill="#BCBEC0" d="M130.26,162.213c4.734,0,8.572-3.837,8.572-8.572
			c0-4.734-3.838-8.571-8.572-8.571c-4.734,0-8.572,3.837-8.572,8.571C121.688,158.376,125.525,162.213,130.26,162.213"/>
	</g>
	<g>
		<defs>
			<rect id="SVGID_61_" x="-128" y="-206.28" width="841.89" height="595.28"/>
		</defs>
		<clipPath id="SVGID_62_">
			<use xlink:href="#SVGID_61_"  overflow="visible"/>
		</clipPath>
		<path clip-path="url(#SVGID_62_)" fill="#1268B3" d="M77.335,63.137H61.879v35.22c0,0-0.028,0.918-0.057,1.479
			c-0.076,1.453-1.033,4.244-4.653,4.775c-0.392,0.058-1.656,0.088-1.894,0.088H20.736v15.777h41.521c0,0,1.239,0.055,2.57-0.102
			c3.206-0.376,12.519-2.651,12.519-14.921C77.346,90.297,77.335,63.137,77.335,63.137"/>
	</g>
	<g>
		<defs>
			<rect id="SVGID_63_" x="-128" y="-206.28" width="841.89" height="595.28"/>
		</defs>
		<clipPath id="SVGID_64_">
			<use xlink:href="#SVGID_63_"  overflow="visible"/>
		</clipPath>
		<path clip-path="url(#SVGID_64_)" fill="#C71F3E" d="M82.071,161.863h15.456v-35.22c0,0,0.028-0.918,0.057-1.479
			c0.077-1.453,1.033-4.243,4.653-4.774c0.392-0.058,1.656-0.089,1.894-0.089h34.54v-15.777H97.149c0,0-1.239-0.055-2.57,0.103
			c-3.206,0.376-12.519,2.65-12.519,14.921C82.06,134.705,82.071,161.863,82.071,161.863"/>
	</g>
</g>
</svg>
